<svg xmlns="http://www.w3.org/2000/svg" viewBox="0 0 200 200" width="250" height="250">

  <defs>
    <linearGradient id="lavaRock" x1="0%" y1="0%" x2="100%" y2="100%">
      <stop offset="0%" stop-color="#1c1917"/>
      <stop offset="50%" stop-color="#0f0a0a"/>
      <stop offset="100%" stop-color="#000000"/>
    </linearGradient>

    <linearGradient id="lavaGround" x1="0%" y1="0%" x2="0%" y2="100%">
      <stop offset="0%" stop-color="#f97316"/>
      <stop offset="100%" stop-color="#c2410c"/>
    </linearGradient>

    <linearGradient id="magmaCore" x1="0%" y1="0%" x2="0%" y2="100%">
      <stop offset="0%" stop-color="#fde68a"/>
      <stop offset="50%" stop-color="#f97316"/>
      <stop offset="100%" stop-color="#b91c1c"/>
    </linearGradient>
  </defs>

  <ellipse cx="100" cy="150" rx="70" ry="20" fill="url(#lavaGround)"/>

  <path
    d="M35 140 Q50 100 70 110 Q85 95 100 100 Q115 90 130 105 Q150 95 165 140 Q140 155 100 155 Q60 155 35 140Z"
    fill="url(#lavaRock)"
    stroke="#f97316"
    stroke-width="2"
  />

  <circle cx="65" cy="65" r="15" fill="#fb923c"/>
  <circle cx="135" cy="55" r="18" fill="#fb923c"/>

  <polygon points="95,130 100,100 105,130" fill="url(#magmaCore)"/>
  <polygon points="52,128 58,112 64,128" fill="url(#magmaCore)"/>
  <polygon points="140,125 148,105 156,125" fill="url(#magmaCore)"/>

</svg>