<svg xmlns="http://www.w3.org/2000/svg" viewBox="0 0 200 200" width="250" height="250">

  <defs>
    <linearGradient id="emeraldGround" x1="0%" y1="0%" x2="0%" y2="100%">
      <stop offset="0%" stop-color="#34d399"/>
      <stop offset="100%" stop-color="#065f46"/>
    </linearGradient>

    <linearGradient id="emeraldRock" x1="0%" y1="0%" x2="100%" y2="100%">
      <stop offset="0%" stop-color="#1e293b"/>
      <stop offset="50%" stop-color="#0f172a"/>
      <stop offset="100%" stop-color="#020617"/>
    </linearGradient>

    <linearGradient id="forestCrystal" x1="0%" y1="0%" x2="0%" y2="100%">
      <stop offset="0%" stop-color="#a5f3fc"/>
      <stop offset="50%" stop-color="#22d3ee"/>
      <stop offset="100%" stop-color="#0ea5e9"/>
    </linearGradient>

    <linearGradient id="emeraldTree" x1="0%" y1="100%" x2="0%" y2="0%">
      <stop offset="0%" stop-color="#065f46"/>
      <stop offset="100%" stop-color="#34d399"/>
    </linearGradient>
  </defs>

  <ellipse cx="100" cy="150" rx="70" ry="20" fill="url(#emeraldGround)" />

  <path
    d="M35 140 Q50 100 70 110 Q85 95 100 100 Q115 90 130 105 Q150 95 165 140 Q140 155 100 155 Q60 155 35 140Z"
    fill="url(#emeraldRock)"
    stroke="#34d399"
    stroke-width="2"
  />

  <ellipse cx="82" cy="128" rx="10" ry="6" fill="#0b1220" opacity="0.4"/>
  <ellipse cx="120" cy="124" rx="8" ry="5" fill="#0b1220" opacity="0.35"/>

  <path d="M60 115 L60 70" stroke="#064e3b" stroke-width="5" stroke-linecap="round"/>
  <circle cx="60" cy="58" r="18" fill="url(#emeraldTree)"/>
  <circle cx="50" cy="70" r="10" fill="url(#emeraldTree)"/>

  <path d="M140 108 L140 58" stroke="#064e3b" stroke-width="5" stroke-linecap="round"/>
  <circle cx="140" cy="45" r="20" fill="url(#emeraldTree)"/>
  <circle cx="150" cy="60" r="12" fill="url(#emeraldTree)"/>

  <polygon
    points="100,68 106,82 118,84 108,92 112,106 100,98 88,106 92,92 82,84 94,82"
    fill="url(#forestCrystal)"
  />

  <polygon points="74,128 82,108 90,128" fill="url(#forestCrystal)"/>
  <polygon points="118,130 123,110 131,130" fill="url(#forestCrystal)"/>

  <circle cx="90" cy="72" r="3" fill="#a7f3d0"/>
  <circle cx="110" cy="68" r="2.5" fill="#22d3ee"/>
  <circle cx="100" cy="60" r="2" fill="#ecfeff"/>

</svg>